<svg xmlns="http://www.w3.org/2000/svg" viewBox="0 0 438.48 366.93" id="logo" alt="Toastmasters International">
  <defs>
    <linearGradient id="a" x1="-69.32" y1="182.85" x2="269.37" y2="182.85" gradientUnits="userSpaceOnUse">
      <stop offset="0" stop-color="#fff"></stop>
      <stop offset="1" stop-color="#004062"></stop>
    </linearGradient>
  </defs>
  <path
    d="M436.53 134.8h-43.77A180.14 180.14 0 00219.17 2.73C136.34 2.73 66.62 58.66 45.6 134.8H2.3v97.05h43.58C67.22 307.5 136.7 363 219.17 363s152-55.46 173.32-131.1h44z"
    fill="#770d29"></path>
  <path d="M388.52 182.85A169.34 169.34 0 11219.17 13.51a169.35 169.35 0 01169.35 169.34z"
        fill="url(#a)"></path>
  <path
    d="M263.1 15.27C171.3-9 76.92 46 52.68 137.74s30.7 186.17 122.47 210.4 186.17-30.7 210.4-122.47S354.86 39.5 263.1 15.27zM154 332.2a89.59 89.59 0 01-19-17.67c-10.38-12.78-17.8-28.32-22.7-44.83.67.28 1.34.58 2 .88 13.06 5.47 26.37 10.23 39.83 14.44 0 1.1 0 2.18.1 3.26a169.91 169.91 0 002.48 23.15c1.4 7.5 3.4 14.78 6.65 21.05a34.3 34.3 0 004.65 6.84 136.47 136.47 0 01-4.45-1.52 79 79 0 01-9.55-5.6zM56.32 204.36a165.27 165.27 0 011.44-52.61 50.89 50.89 0 008.16 8.25 135.2 135.2 0 0018.73 12.6c5.53 3.14 11.17 6 16.9 8.73a234.64 234.64 0 00-2.1 23.5c-2.5 0-5 0-7.55.15a103 103 0 00-19.9 2.69 40.08 40.08 0 00-9.87 3.8 20.57 20.57 0 00-4.15 3.1c-.64-3.4-1.2-6.8-1.66-10.2zM94.2 74.8a20 20 0 002 4.47 39.52 39.52 0 006.79 8.19 103 103 0 0016 12.14c2.25 1.4 4.54 2.75 6.84 4q-5.26 10.34-9.5 21.2c-6.28-.46-12.56-.73-18.9-.72A134.18 134.18 0 0075 125.82 49.84 49.84 0 0063.71 129a165.24 165.24 0 0125-47.39q2.67-3.46 5.5-6.8zm10.3-11.16c.15-.1.3-.2.46-.27a33.46 33.46 0 018.28-3.2 95.35 95.35 0 0118.62-2.56 234.84 234.84 0 0125.58.18 202.67 202.67 0 00-28.3 39.61 4.64 4.64 0 01-.23.44l-6.6-4a97.23 97.23 0 01-14.93-11.42 34.43 34.43 0 01-5.62-6.87c-1.44-2.43-2.1-4.94-1.55-6.9a6 6 0 01.31-.87 156.57 156.57 0 013.99-4.13zm69.1-41.2q7.8-2.25 15.87-3.72a7.32 7.32 0 00-.33.93 7.9 7.9 0 00-.09 3.41 10.7 10.7 0 001 2.81 18.06 18.06 0 002.32 3.39A145.16 145.16 0 00164 51c-.6.58-1.17 1.2-1.76 1.8a230.84 230.84 0 00-30.59-1 112.17 112.17 0 00-16 1.77 164.44 164.44 0 0121.45-15.02 170.46 170.46 0 0136.51-16.1zm135.7 241.22c1.54.9 3.08 1.82 4.6 2.78a98 98 0 0115.4 11.68 36.54 36.54 0 016.15 7.48c1.64 2.74 2.77 6.1 1.92 9.34s-3.5 5.6-6.27 7.16a37 37 0 01-9.05 3.48 99.84 99.84 0 01-19.16 2.55 209.59 209.59 0 01-24.81-.5 203 203 0 0030.49-42.57zm-1.83 1a198.25 198.25 0 01-31.37 42.77 355.6 355.6 0 01-11.78-1.15c-12.17-1.44-24.24-3.48-36.2-5.93 2.76-4.9 5.4-9.93 7.92-15a425 425 0 0018.6-44.28l.52-1.47c8.2 2.87 16.3 5.94 24.32 9.3a273 273 0 0128.84 14.15c-.32.58-.55 1.12-.84 1.66zm-129.65 77.47c-5.36-1.46-9.5-6.2-12.33-12.12s-4.64-12.94-5.8-20.2a172.14 172.14 0 01-1.91-23.64q15.2 4.63 30.63 8.48 18.17 4.47 36.57 7.83l-1.7 2.77a164.42 164.42 0 01-13.22 18.52c-4.73 5.66-9.87 10.8-15.4 14.4a28.15 28.15 0 01-8.49 3.91 15.71 15.71 0 01-8.33.04zm10.95-51.3q-15.65-4.4-31-9.66c0-5.72.23-11.5.56-17.24a423.27 423.27 0 015.66-47.18c0-.13 0-.25.07-.37q21.16 3.56 42.07 8.75c16.2 4.05 32.3 8.7 48.1 14.18a414.21 414.21 0 01-19.47 45.49q-3.93 7.83-8.34 15.27c-12.66-2.65-25.22-5.76-37.66-9.24zM105 204.93c.3-7 1-14.07 1.9-21.08 5.95 2.7 12 5.24 18 7.7 12.12 4.8 24.4 9.13 36.78 13.1l-1.24 6.75c-9.7-1.83-19.46-3.37-29.3-4.55-8.7-.97-17.4-1.7-26.14-1.9zM60.5 139.8c.07-.3.16-.6.24-.92.9-1.7 3-3.26 5.52-4.36a43.67 43.67 0 019.82-2.85 127.07 127.07 0 0121.37-1.75q8.4-.06 16.84.38-3.94 10.78-6.9 21.9-2.96 11.1-4.84 22.65-7.56-3.8-14.85-8A127.57 127.57 0 0170 154.77a43 43 0 01-7.14-7.34c-1.63-2.18-2.7-4.58-2.65-6.5.08-.38.17-.76.28-1.13zm52.42 13.85c2-7.8 4.48-15.46 7.26-23q10.36.7 20.7 2c12.7 1.5 25.36 3.42 38 5.7q-4.92 15.06-9 30.4-4.08 15.33-7.22 31.1c-12.1-4.26-24.05-8.83-35.83-13.83q-9.6-4-19-8.5c1.32-8.05 3-16 5.1-23.84zM195.23 27.3a16.3 16.3 0 01-2.54-3.51 5.1 5.1 0 01-.61-3.59 4.43 4.43 0 011.48-2.21A164.85 164.85 0 01227 16.2a98 98 0 00-16.21 4.39 115.14 115.14 0 00-15.3 6.93c-.1-.07-.2-.14-.26-.2zm126 24a5.92 5.92 0 01.09 3.1 6.83 6.83 0 01-3.07 3.84 14.52 14.52 0 01-2.57 1.32 110.49 110.49 0 00-8.79-12.47 96.16 96.16 0 00-13-13.2 165.28 165.28 0 0127.37 17.36zm16.8 102.16a202.65 202.65 0 00-5.39-51.75 213 213 0 0121.9 11.83A99.45 99.45 0 01370 125.2a36.79 36.79 0 016.19 7.49c1.65 2.75 2.78 6.1 1.93 9.34s-3.5 5.6-6.3 7.17a36.8 36.8 0 01-9.07 3.45 99.18 99.18 0 01-19.24 2.54 172.75 172.75 0 01-5.55.14c.03-.64.1-1.27.1-1.9zm-1.13-.24c0 .72-.05 1.44-.07 2.15a272 272 0 01-32-2c-8.66-1-17.25-2.38-25.82-3.93l.33-1.82a425.45 425.45 0 005.7-47.7c.3-5.55.5-11.12.5-16.65C297.18 87 308.7 91.23 320 96l10.88 4.86a197.66 197.66 0 016.05 52.32zm-162.6 16.65q4.08-15.54 9-30.77 21.9 4.1 43.53 9.52c16.36 4.1 32.63 8.7 48.7 13.9q-3.22 16.17-7.42 32.14c-2.86 10.67-6 21.3-9.48 31.8-16.54-3.4-32.94-7.46-49.2-11.95q-21.47-6-42.55-13.22 3.28-15.8 7.42-31.42zM228.2 146c-14.42-4-29-7.65-43.6-10.8l2-5.73c13.87 4.6 27.93 8.58 42.08 12.12 16.2 4 32.53 7.37 49 9.93l-1.77 9.48q-23.6-8.28-47.7-15zm-13.47-80.83q15.88 3 31.58 6.9c12.64 3.16 25.2 6.67 37.6 10.66a256.81 256.81 0 01-.29 17.07 410.73 410.73 0 01-5.58 49.45c-16.53-3-32.9-7-49.08-11.47q-20.6-5.8-40.72-13.1c.08-.22.15-.45.24-.67a425.64 425.64 0 0118.36-43.84c2.5-5.08 5.15-10.1 7.9-15zM248 18.56l4.43.86a33.13 33.13 0 00-7.39 3.64c-5.92 3.85-11.28 9.2-16.18 15-1.78 2.12-3.5 4.34-5.16 6.6-2-.87-4.05-1.78-6-2.73a110.07 110.07 0 01-15.65-8.86 62.03 62.03 0 01-3.2-2.4 104.63 104.63 0 0112.7-6 89.34 89.34 0 0125.22-6 78.54 78.54 0 0111.23-.1zM230.7 41c4.6-5.73 9.6-11 15-14.7a29 29 0 018.35-4.14 16.07 16.07 0 018.32-.32c5.4 1.27 9.7 5.88 12.7 11.74s5 12.9 6.3 20.14c.43 2.38.78 4.78 1.08 7.2a216.58 216.58 0 01-31.06-6.49A227.87 227.87 0 01226.91 46a128.62 128.62 0 013.8-5zm20.45 15.56A220.13 220.13 0 00282.6 62c.57 4.7.94 9.5 1.15 14.34l.14 4.55q-17.9-6.3-36.17-11.42-15.36-4.27-31-7.8c2.66-4.54 5.44-8.94 8.37-13.15a225.5 225.5 0 0026.07 8.02zm27.44 95.12c9 1.38 18 2.53 27 3.4a285.43 285.43 0 0031.22 1.44 234.48 234.48 0 01-2.63 28.55c-7.42-3.66-15-7.06-22.6-10.27q-17.2-7.28-34.83-13.45l1.83-9.67zm42.67-55.9c-11.7-5.26-23.63-10-35.7-14.3 0-6.5-.3-13-.93-19.3l2.4.2a109.4 109.4 0 0018.28 0 44.43 44.43 0 008.68-1.61 139.12 139.12 0 0115.78 35.89c.35 1.16.63 2.33.94 3.5q-4.72-2.25-9.45-4.38zM285.4 30.94a89.86 89.86 0 0119.48 17.35 107.23 107.23 0 018.76 12 43.68 43.68 0 01-8.73 1.54 105.56 105.56 0 01-18.14-.36l-2.25-.26a185.85 185.85 0 00-1-8c-1.23-7.48-3.08-14.76-6.17-21.1a34 34 0 00-4.63-7.13c2.18.75 4.34 1.53 6.47 2.36a67.27 67.27 0 016.21 3.59zm-89.8 1.56a50.64 50.64 0 004.79 3.7A106 106 0 00216.6 45c1.73.77 3.47 1.5 5.2 2.2q-3.37 4.8-6.5 9.8c-.8 1.28-1.58 2.57-2.36 3.87-13.84-3-27.8-5.45-41.92-7.15l-2.4-.25a143.52 143.52 0 0126.97-20.97zm-25.4 26.28c13.6 1.3 27.14 3.23 40.6 5.67q-3.76 6.5-7.2 13.3a411.6 411.6 0 00-19.54 45.42q-14.12-5.28-27.84-11.42c-7.65-3.43-15.2-7.1-22.5-11.15l.12-.23A199.75 199.75 0 01164 58.24l6.22.54zm-16 58.66c9.26 3.88 18.64 7.4 28.1 10.62q-1.08 3.1-2.13 6.23c-12.7-2.66-25.5-5-38.4-6.76-6.5-.86-13-1.63-19.57-2.2q3.86-9.7 8.5-19c7.65 4.1 15.5 7.68 23.46 11.12zM166 206q21.42 6.7 43.18 12.1 24.22 6 48.8 10.5l-3.26 9.37c-15.5-5.9-31.28-11-47.24-15.5-14.07-3.9-28.3-7.38-42.65-10.24L166 206zm114.7 42.7c-8.24-3.7-16.6-7.14-25.06-10.38q1.7-4.74 3.3-9.55c12.27 2.2 24.6 4.07 37 5.53q12.27 1.47 24.6 2.22a233 233 0 01-12.06 26.34 283.11 283.11 0 00-27.82-14.13zm14.5-15.9c-11.93-1.67-23.8-3.77-35.58-6.18q5.16-15.74 9.37-31.78a545.64 545.64 0 007.51-32.06q17.16 5.58 34 12.2c8 3.24 15.92 6.65 23.7 10.36a248.88 248.88 0 01-5.25 25.35 253.15 253.15 0 01-8 24.8c-8.66-.57-17.24-1.5-25.78-2.65zm34.65-21.8a244.58 244.58 0 005.3-25.11c5.07 2.46 10.08 5.06 15 7.85A130.29 130.29 0 01368.34 206a46.7 46.7 0 017.69 7.83 19.11 19.11 0 012.67 4.82 8.46 8.46 0 01-2.64 10 18.75 18.75 0 01-4.71 2.87 46 46 0 01-10.56 3 131.37 131.37 0 01-21.88 1.69c-5.65 0-11.3-.22-16.92-.6a248.48 248.48 0 007.86-24.62zm50 8.33a18.92 18.92 0 00-2.66-4.85 47.25 47.25 0 00-7.7-7.91 133.37 133.37 0 00-18.23-12.41c-5.25-3-10.6-5.87-16-8.57a237 237 0 002.74-29.11c2.2 0 4.43-.1 6.66-.22A99.28 99.28 0 00364 153.6a37 37 0 009.12-3.52c2.8-1.6 5.44-4 6.28-7.24a8.44 8.44 0 00.28-2 164.49 164.49 0 01.54 79.66 8.67 8.67 0 00-.39-1.21zm-2.35-85.85a36.62 36.62 0 00-6.18-7.57A101 101 0 00355.79 114a242.6 242.6 0 00-23.27-13l-1.14-4.48A146.33 146.33 0 00316 60.05a14.18 14.18 0 002.76-1.43 7 7 0 003.07-3.92 6.13 6.13 0 000-3 166.82 166.82 0 0155.84 82.07c-.05-.1-.12-.22-.2-.33zM62.12 228.73c-1.43-2.44-2.1-4.95-1.53-6.92s2.3-3.83 4.75-5.23a33.48 33.48 0 018.25-3.2 95.32 95.32 0 0118.54-2.59q3.57-.2 7.14-.22a203.21 203.21 0 005.1 48.63A229.08 229.08 0 0182.58 247a96 96 0 01-14.86-11.4 34.54 34.54 0 01-5.6-6.87zm42.66-18.2c8.5.06 17 .58 25.56 1.4q14.7 1.4 29.33 3.73a412.94 412.94 0 00-5.38 48.81c-.25 5.16-.33 10.3-.28 15.42q-19.15-6.72-37.66-15-3.07-1.4-6.12-2.83a199.24 199.24 0 01-5.45-51.52zm83.45 134a33.42 33.42 0 007.57-3.91c5.8-4 11-9.4 15.8-15.3a178.88 178.88 0 0015.14-22.49c12.7 2.23 25.45 4 38.27 5.22q4.9.47 9.8.8l-1.48 1.5C260 323.42 244.47 334 227.8 340.1a89.79 89.79 0 01-25.51 5.47c-2.37.15-4.74.17-7.1.1q-3.48-.5-6.96-1.17zm40.77-2.37c16.94-6.57 32.37-17.64 45.7-31 .74-.73 1.43-1.5 2.16-2.24a243.39 243.39 0 0027 .23 100.25 100.25 0 0019.27-2.68 38.73 38.73 0 008.59-3.28 166.14 166.14 0 01-120.65 44 96.56 96.56 0 0017.92-5.03zm107.62-55.84a36.8 36.8 0 00-6.15-7.57A99.92 99.92 0 00315 266.91l-5.6-3.45a235.28 235.28 0 0012.19-26.85c6.1.33 12.2.5 18.3.47a133.73 133.73 0 0022-1.77 47.7 47.7 0 0010.6-3.08 19.53 19.53 0 004.71-2.9 12.25 12.25 0 00.9-.87 164.82 164.82 0 01-40.1 68.65 7.55 7.55 0 00.51-1.4c.84-3.24-.28-6.63-1.92-9.4zM77.1 265.7a164.55 164.55 0 01-10.68-22.24 113.65 113.65 0 0012.87 9.33 232 232 0 0027.08 14.29c.1.34.2.7.3 1.05 5.3 18.34 13.78 35.58 25.63 49.53a95.91 95.91 0 0012 11.87 164.61 164.61 0 01-43.88-32.32 168.79 168.79 0 01-23.31-31.51z"
    fill="#fff" stroke="#fff" stroke-width=".5"></path>
  <path
    d="M263 17.88C173.1-5.85 80.6 48.33 56.73 138.67S86.55 321.82 176.4 345.55s182.36-30.45 206.22-120.8S352.8 41.6 263 17.88z"
    fill="none" stroke="#ffeb88" stroke-miterlimit="10" stroke-width="8.5"></path>
  <path d="M8.92 141.43H429.7v83.82H8.92z" fill="#fff"></path>
  <path
    d="M366.56 194.8a2.09 2.09 0 114.17 0 2.09 2.09 0 11-4.17 0zm3.93 0a1.85 1.85 0 10-3.69 0 1.85 1.85 0 103.69 0zm-2.66-1.1h1c.47 0 .8.22.8.67a.64.64 0 01-.49.65l.56.8h-.5l-.5-.73h-.44v.73h-.4zm.92 1.05c.28 0 .43-.14.43-.35s-.15-.34-.43-.34h-.5v.7z"
    fill="#7a1613"></path>
  <path
    d="M67 192.44h2.35l-.07 20.63H67zm12.9 0h2.2l13 16.5v-16.5h2.27v20.63h-1.82L82.2 196.2l-.06 16.88h-2.22zm33.32 2.18h-6.9v-2.16h16.22v2.14h-6.93v18.48h-2.36zm18.26-2.25h14.92v2.13h-12.57v7h11.26v2.1h-11.27v7.2h12.7v2.2h-15.05zm24.32.07h8.25c3.12 0 5.2.68 6.58 2.1a6.61 6.61 0 011.51 3.83c0 3.45-2 5.6-5.57 6.26l6.33 8.43H170l-6-8h-5.86v8h-2.33zm8.1 10.56c4.44 0 5.88-2 5.93-4.53-.3-2-1.22-3.9-5.82-3.9h-5.88V203zm17.8-10.56h2.22l13 16.56v-16.56h2.27v20.63h-1.87L184 196.2v16.88h-2.28zm35.55-.14h2.18l9.4 20.77h-2.5l-2.33-5.42h-11.26l-2.45 5.44h-2.4zm5.75 13.2l-4.68-10.5-4.72 10.5zm17.27-10.9h-6.9v-2.17h16.22v2.17h-6.93v18.46h-2.34zm18.47-2.16h2.32v20.63h-2.32zm12.04 10.38v-.06a10.47 10.47 0 0110.36-10.67 10.3 10.3 0 0110.67 10.59 10.52 10.52 0 11-21 .14zm18.64 0v-.06a8.15 8.15 0 00-8.11-8.49c-5.12.05-8.1 4-8.1 8.47v.06a8.3 8.3 0 005.9 8.25 8.16 8.16 0 0010.32-8.27zm11.9-10.38h2.2l13 16.54v-16.54h2.3v20.63h-1.88l-13.3-16.9v16.9h-2.26zm35.53-.14H339l9.4 20.77h-2.5l-2.45-5.45H332.3l-2.47 5.44h-2.37zm5.74 13.18L337.9 195l-4.7 10.5zm14.5-13.04h2.33v18.5h11.64v2.13H357.1z"
    fill="#770d29"></path>
  <path
    d="M32 159.23H22v-6.38h27.27v6.38h-10v25.08H32zm20 9.44v-.1c0-9 7.4-16.27 17.58-16.27S87 159.54 87 168.5v.1c0 8.94-7.4 16.26-17.6 16.26S52 177.6 52 168.67zm27.5 0v-.1a9.78 9.78 0 00-10-9.89 9.62 9.62 0 00-9.9 9.8v.1a9.78 9.78 0 0010 9.88 9.63 9.63 0 009.86-9.79zm23.2-16.05h6.7l14.14 31.7h-7.6l-3-7.06H99l-3 7.06h-7.4zm7.64 18.52l-4.4-10.2-4.38 10.2zm15.56 8.58l4.3-4.9a15.52 15.52 0 009.85 3.82c3 0 4.76-1.12 4.76-3v-.1c0-1.76-1.13-2.65-6.64-4-6.65-1.62-10.94-3.37-10.94-9.62v-.1c0-5.7 4.8-9.48 11.55-9.48a19.72 19.72 0 0112.26 4l-3.77 5.2c-2.93-1.93-5.8-3.1-8.58-3.1s-4.25 1.2-4.25 2.74v.1c0 2.07 1.42 2.74 7.12 4.14 6.7 1.66 10.47 4 10.47 9.43v.13c0 6.25-5 9.75-12.12 9.75a21.6 21.6 0 01-14-5.03zm39.4-20.5h-10v-6.38h27.35v6.38h-10v25.08h-7.35zm22.87-6.38H196l8.67 13.3 8.68-13.3h7.83v31.46H214v-20.54l-9.3 13.43h-.18l-9.2-13.3v20.4h-7.12zm52.23-.23h6.7l14.14 31.7h-7.6l-3-7.06H236.7l-3 7.06h-7.4zm7.64 18.52l-4.38-10.2-4.4 10.2zm15.56 8.58l4.3-4.9a15.52 15.52 0 009.86 3.82c3 0 4.76-1.12 4.76-3v-.1c0-1.76-1.13-2.65-6.65-4-6.65-1.62-10.94-3.37-10.94-9.62v-.1c0-5.7 4.8-9.48 11.55-9.48a19.72 19.72 0 0112.26 4L285 161.6c-2.92-1.93-5.8-3.1-8.58-3.1s-4.24 1.2-4.24 2.74v.1c0 2.07 1.4 2.74 7.1 4.14 6.7 1.66 10.47 4 10.47 9.43v.1c0 6.25-5 9.75-12.12 9.75a21.62 21.62 0 01-14.03-5.03zm39.4-20.5h-10v-6.38h27.34v6.38h-10v25.08H303zm22.9-6.38h24.9V159h-17.7v6.38h15.56v6.15H333.1v6.6H351v6.16h-25.1zm31.6 0h15.08c4.2 0 7.45 1.12 9.62 3.2a9.61 9.61 0 012.83 7.19v.1c0 5.08-2.87 8.27-7.07 9.75l8.04 11.2h-8.5l-7.07-10.07h-5.7v10.07h-7.26zm14.6 15.28c3.54 0 5.57-1.8 5.57-4.45v-.1c0-3-2.17-4.5-5.7-4.5h-7.2v9zm17.2 11.6l4.3-4.9a15.52 15.52 0 009.86 3.82c3 0 4.76-1.12 4.76-3v-.1c0-1.76-1.13-2.65-6.65-4-6.65-1.62-10.94-3.37-10.94-9.62v-.1c0-5.7 4.8-9.48 11.55-9.48a19.72 19.72 0 0112.26 4l-3.77 5.2c-2.92-1.93-5.8-3.1-8.58-3.1s-4.25 1.2-4.25 2.74v.1c0 2.07 1.42 2.74 7.12 4.14 6.7 1.66 10.47 4 10.47 9.43v.13c0 6.25-5 9.75-12.1 9.75a21.62 21.62 0 01-14.01-5.03z"
    fill="#004062"></path>
</svg>